<svg xmlns="http://www.w3.org/2000/svg" xmlns:xlink="http://www.w3.org/1999/xlink" width="133.393" height="31.311" viewBox="0 0 133.393 31.311">
  <defs>
    <clipPath id="clip-path">
      <rect id="Rectangle_13" data-name="Rectangle 13" width="133.393" height="31.311" fill="#1b1b1b"/>
    </clipPath>
  </defs>
  <g id="Group_27" data-name="Group 27" transform="translate(-342 -1319)">
    <g id="Group_26" data-name="Group 26" transform="translate(342 1319)">
      <g id="Group_25" data-name="Group 25" transform="translate(0 0)" clip-path="url(#clip-path)">
        <path id="Path_29" data-name="Path 29" d="M49.2,39.822a5.727,5.727,0,0,0,4.21-1.667l5.262,3.026c-2.149,2.982-5.394,4.517-9.56,4.517-7.5,0-12.148-5.043-12.148-11.577A11.243,11.243,0,0,1,48.628,22.543c6.4,0,11.139,4.955,11.139,11.577a12.732,12.732,0,0,1-.263,2.631H43.936c.833,2.281,2.85,3.07,5.262,3.07m4.035-7.982a4.515,4.515,0,0,0-4.649-3.464A4.527,4.527,0,0,0,43.8,31.84Z" transform="translate(-23.589 -14.387)" fill="#1b1b1b"/>
        <path id="Path_30" data-name="Path 30" d="M127.212,23.157V45.084h-6.578V43.023A8.236,8.236,0,0,1,114.1,45.7c-5.745,0-10.481-5.043-10.481-11.577s4.736-11.577,10.481-11.577a8.236,8.236,0,0,1,6.534,2.675V23.157ZM120.634,34.12a5.22,5.22,0,1,0-10.437,0,5.22,5.22,0,1,0,10.437,0" transform="translate(-66.128 -14.387)" fill="#1b1b1b"/>
        <path id="Path_31" data-name="Path 31" d="M176.092,34.12a11.6,11.6,0,0,1,21.532-5.964l-5.745,3.333a4.542,4.542,0,0,0-4.254-2.456,4.825,4.825,0,0,0-4.955,5.087,4.826,4.826,0,0,0,4.955,5.088,4.5,4.5,0,0,0,4.254-2.456l5.745,3.289a11.194,11.194,0,0,1-9.911,5.657A11.36,11.36,0,0,1,176.092,34.12" transform="translate(-112.379 -14.387)" fill="#1b1b1b"/>
        <path id="Path_32" data-name="Path 32" d="M260.89,17.235V30.7h-6.578V18.2a3.616,3.616,0,0,0-3.815-3.991c-2.412,0-4.079,1.4-4.079,4.517V30.7H239.84V0h6.578V10.832c1.184-1.622,3.377-2.675,6.271-2.675,4.429,0,8.2,3.158,8.2,9.078" transform="translate(-153.062 0)" fill="#1b1b1b"/>
        <path id="Path_33" data-name="Path 33" d="M304.435,34.12A11.621,11.621,0,1,1,316.056,45.7,11.493,11.493,0,0,1,304.435,34.12m16.664,0a5.045,5.045,0,1,0-10.086,0,5.045,5.045,0,1,0,10.086,0" transform="translate(-194.285 -14.387)" fill="#1b1b1b"/>
        <rect id="Rectangle_12" data-name="Rectangle 12" width="6.578" height="4.263" transform="translate(0 26.434)" fill="#00b1f2"/>
        <path id="Path_34" data-name="Path 34" d="M6.578,27.371v-3.9H0V38.087H6.578v-2.6c0-4.342,3.859-5.438,6.578-5V23.03c-2.762,0-5.7,1.4-6.578,4.341" transform="translate(0 -14.697)" fill="#1b1b1b"/>
      </g>
    </g>
  </g>
</svg>
